<svg xmlns="http://www.w3.org/2000/svg" viewBox="0 0 32 32" fill="none">
  <!-- Open book pages with transparency effect -->
  <!-- Left page -->
  <path d="M4 6C4 6 8 4 16 4V26C8 26 4 28 4 28V6Z" fill="#3b82f6" fill-opacity="0.15" stroke="#3b82f6" stroke-width="1.5" stroke-linejoin="round"/>
  <!-- Right page -->
  <path d="M28 6C28 6 24 4 16 4V26C24 26 28 28 28 28V6Z" fill="#3b82f6" fill-opacity="0.15" stroke="#3b82f6" stroke-width="1.5" stroke-linejoin="round"/>
  <!-- Spine -->
  <line x1="16" y1="4" x2="16" y2="26" stroke="#3b82f6" stroke-width="1.5"/>
  <!-- Left page lines (ledger rows) -->
  <line x1="7" y1="10" x2="14" y2="10" stroke="#3b82f6" stroke-opacity="0.5" stroke-width="1" stroke-linecap="round"/>
  <line x1="7" y1="14" x2="14" y2="14" stroke="#3b82f6" stroke-opacity="0.5" stroke-width="1" stroke-linecap="round"/>
  <line x1="7" y1="18" x2="14" y2="18" stroke="#3b82f6" stroke-opacity="0.5" stroke-width="1" stroke-linecap="round"/>
  <line x1="7" y1="22" x2="14" y2="22" stroke="#3b82f6" stroke-opacity="0.5" stroke-width="1" stroke-linecap="round"/>
  <!-- Right page lines -->
  <line x1="18" y1="10" x2="25" y2="10" stroke="#3b82f6" stroke-opacity="0.5" stroke-width="1" stroke-linecap="round"/>
  <line x1="18" y1="14" x2="25" y2="14" stroke="#3b82f6" stroke-opacity="0.5" stroke-width="1" stroke-linecap="round"/>
  <line x1="18" y1="18" x2="25" y2="18" stroke="#3b82f6" stroke-opacity="0.5" stroke-width="1" stroke-linecap="round"/>
  <line x1="18" y1="22" x2="25" y2="22" stroke="#3b82f6" stroke-opacity="0.5" stroke-width="1" stroke-linecap="round"/>
</svg>
